solid OpenSCAD_Model
  facet normal 0 -1 0
    outer loop
      vertex -4.5 -5 -5
      vertex -5 -5 15
      vertex -5 -5 -4.93418
    endloop
  endfacet
  facet normal 0 -1 0
    outer loop
      vertex -5 -5 15
      vertex -4.5 -5 -5
      vertex 5 -5 15
    endloop
  endfacet
  facet normal 0 -1 0
    outer loop
      vertex 4.5 -5 -5
      vertex 5 -5 15
      vertex -4.5 -5 -5
    endloop
  endfacet
  facet normal 0 -1 0
    outer loop
      vertex -5 -5 -4.93418
      vertex -4.01704 -5 -5.12941
      vertex -4.5 -5 -5
    endloop
  endfacet
  facet normal 0 -1 0
    outer loop
      vertex -9.19342 -5 -24.4479
      vertex -5 -5 -4.93418
      vertex -10.1593 -5 -24.1891
    endloop
  endfacet
  facet normal 0 -1 -0
    outer loop
      vertex -5 -5 -4.93418
      vertex -9.19342 -5 -24.4479
      vertex -4.01704 -5 -5.12941
    endloop
  endfacet
  facet normal 0 -1 -0
    outer loop
      vertex 5 -5 15
      vertex 4.5 -5 -5
      vertex 5 -5 -4.93418
    endloop
  endfacet
  facet normal 0 -1 0
    outer loop
      vertex 4.01704 -5 -5.12941
      vertex 5 -5 -4.93418
      vertex 4.5 -5 -5
    endloop
  endfacet
  facet normal 0 -1 0
    outer loop
      vertex 9.19342 -5 -24.4479
      vertex 5 -5 -4.93418
      vertex 4.01704 -5 -5.12941
    endloop
  endfacet
  facet normal 0 -1 0
    outer loop
      vertex 5 -5 -4.93418
      vertex 9.19342 -5 -24.4479
      vertex 10.1593 -5 -24.1891
    endloop
  endfacet
  facet normal -0.258821 0 0.965925
    outer loop
      vertex 4.01704 5 -5.12941
      vertex 4.5 -5 -5
      vertex 4.5 5 -5
    endloop
  endfacet
  facet normal -0.258821 0 0.965925
    outer loop
      vertex 4.5 -5 -5
      vertex 4.01704 5 -5.12941
      vertex 4.01704 -5 -5.12941
    endloop
  endfacet
  facet normal -0.965926 0 -0.258819
    outer loop
      vertex 9.19342 -5 -24.4479
      vertex 4.01704 5 -5.12941
      vertex 9.19342 5 -24.4479
    endloop
  endfacet
  facet normal -0.965926 -0 -0.258819
    outer loop
      vertex 4.01704 5 -5.12941
      vertex 9.19342 -5 -24.4479
      vertex 4.01704 -5 -5.12941
    endloop
  endfacet
  facet normal 0.258813 0 -0.965928
    outer loop
      vertex 9.19342 -5 -24.4479
      vertex 10.1593 5 -24.1891
      vertex 10.1593 -5 -24.1891
    endloop
  endfacet
  facet normal 0.258813 0 -0.965928
    outer loop
      vertex 10.1593 5 -24.1891
      vertex 9.19342 -5 -24.4479
      vertex 9.19342 5 -24.4479
    endloop
  endfacet
  facet normal 0.965926 -0 0.258817
    outer loop
      vertex 5 -5 -4.93418
      vertex 10.1593 5 -24.1891
      vertex 5 5 -4.93418
    endloop
  endfacet
  facet normal 0.965926 0 0.258817
    outer loop
      vertex 10.1593 5 -24.1891
      vertex 5 -5 -4.93418
      vertex 10.1593 -5 -24.1891
    endloop
  endfacet
  facet normal 0 1 0
    outer loop
      vertex 4.5 5 -5
      vertex 5 5 15
      vertex 5 5 -4.93418
    endloop
  endfacet
  facet normal 0 1 0
    outer loop
      vertex 5 5 15
      vertex 4.5 5 -5
      vertex -5 5 15
    endloop
  endfacet
  facet normal 0 1 -0
    outer loop
      vertex -4.5 5 -5
      vertex -5 5 15
      vertex 4.5 5 -5
    endloop
  endfacet
  facet normal 0 1 0
    outer loop
      vertex 5 5 -4.93418
      vertex 4.01704 5 -5.12941
      vertex 4.5 5 -5
    endloop
  endfacet
  facet normal 0 1 -0
    outer loop
      vertex 9.19342 5 -24.4479
      vertex 5 5 -4.93418
      vertex 10.1593 5 -24.1891
    endloop
  endfacet
  facet normal 0 1 0
    outer loop
      vertex 5 5 -4.93418
      vertex 9.19342 5 -24.4479
      vertex 4.01704 5 -5.12941
    endloop
  endfacet
  facet normal 0 1 0
    outer loop
      vertex -5 5 15
      vertex -4.5 5 -5
      vertex -5 5 -4.93418
    endloop
  endfacet
  facet normal 0 1 0
    outer loop
      vertex -4.01704 5 -5.12941
      vertex -5 5 -4.93418
      vertex -4.5 5 -5
    endloop
  endfacet
  facet normal 0 1 0
    outer loop
      vertex -9.19342 5 -24.4479
      vertex -5 5 -4.93418
      vertex -4.01704 5 -5.12941
    endloop
  endfacet
  facet normal 0 1 0
    outer loop
      vertex -5 5 -4.93418
      vertex -9.19342 5 -24.4479
      vertex -10.1593 5 -24.1891
    endloop
  endfacet
  facet normal 0.258821 0 0.965925
    outer loop
      vertex -4.5 5 -5
      vertex -4.01704 -5 -5.12941
      vertex -4.01704 5 -5.12941
    endloop
  endfacet
  facet normal 0.258821 0 0.965925
    outer loop
      vertex -4.01704 -5 -5.12941
      vertex -4.5 5 -5
      vertex -4.5 -5 -5
    endloop
  endfacet
  facet normal 0.965926 0 -0.258819
    outer loop
      vertex -4.01704 -5 -5.12941
      vertex -9.19342 5 -24.4479
      vertex -4.01704 5 -5.12941
    endloop
  endfacet
  facet normal 0.965926 0 -0.258819
    outer loop
      vertex -9.19342 5 -24.4479
      vertex -4.01704 -5 -5.12941
      vertex -9.19342 -5 -24.4479
    endloop
  endfacet
  facet normal -0.258813 0 -0.965928
    outer loop
      vertex -10.1593 -5 -24.1891
      vertex -9.19342 5 -24.4479
      vertex -9.19342 -5 -24.4479
    endloop
  endfacet
  facet normal -0.258813 0 -0.965928
    outer loop
      vertex -9.19342 5 -24.4479
      vertex -10.1593 -5 -24.1891
      vertex -10.1593 5 -24.1891
    endloop
  endfacet
  facet normal -0.965926 0 0.258817
    outer loop
      vertex -10.1593 -5 -24.1891
      vertex -5 5 -4.93418
      vertex -10.1593 5 -24.1891
    endloop
  endfacet
  facet normal -0.965926 0 0.258817
    outer loop
      vertex -5 5 -4.93418
      vertex -10.1593 -5 -24.1891
      vertex -5 -5 -4.93418
    endloop
  endfacet
  facet normal 1 -0 0
    outer loop
      vertex 5 -5 15
      vertex 5 5 -4.93418
      vertex 5 5 15
    endloop
  endfacet
  facet normal 1 0 0
    outer loop
      vertex 5 5 -4.93418
      vertex 5 -5 15
      vertex 5 -5 -4.93418
    endloop
  endfacet
  facet normal -0 0 1
    outer loop
      vertex -5 5 15
      vertex 5 -5 15
      vertex 5 5 15
    endloop
  endfacet
  facet normal 0 0 1
    outer loop
      vertex 5 -5 15
      vertex -5 5 15
      vertex -5 -5 15
    endloop
  endfacet
  facet normal 0 0 -1
    outer loop
      vertex -4.5 -5 -5
      vertex 4.5 5 -5
      vertex 4.5 -5 -5
    endloop
  endfacet
  facet normal -0 0 -1
    outer loop
      vertex 4.5 5 -5
      vertex -4.5 -5 -5
      vertex -4.5 5 -5
    endloop
  endfacet
  facet normal -1 0 0
    outer loop
      vertex -5 -5 -4.93418
      vertex -5 5 15
      vertex -5 5 -4.93418
    endloop
  endfacet
  facet normal -1 -0 0
    outer loop
      vertex -5 5 15
      vertex -5 -5 -4.93418
      vertex -5 -5 15
    endloop
  endfacet
endsolid OpenSCAD_Model
